<svg width="100" height="100" viewBox="0 0 100 100" fill="none" xmlns="http://www.w3.org/2000/svg">
<path fill-rule="evenodd" clip-rule="evenodd" d="M50 100C22.3857 100 0 77.6143 0 50C0 22.3857 22.3857 0 50 0C77.6143 0 100 22.3857 100 50C100 77.6143 77.6143 100 50 100ZM77.6976 85.7143C77.3238 85.1643 76.8524 84.4809 76.4738 83.9476C75.8143 83.0095 75.1548 82.0714 74.5643 81.1429C74.5357 81.1 71.2738 76.7238 59.5238 76.1905C55.4357 76.1905 52.4643 73.1238 52.4571 68.8905L52.381 66.6667C52.3429 67.0191 52.381 66.3452 52.381 66.6667V64.2857L54.7619 61.9048C56.5024 61.0976 58.7143 59.7405 60.4643 58.419L60.7857 58.1976C62.169 57.319 64.1024 55.469 64.2857 54.7619L64.3714 53.8548C65.2595 49.2762 66.6667 40.9476 66.6667 38.0952C66.6667 26.881 61.2143 21.4286 50 21.4286C38.631 21.4286 33.3333 26.7238 33.3333 38.0952C33.3333 41.0238 34.7405 49.3119 35.6262 53.8476L35.7095 54.6857C35.8595 55.431 37.6119 57.1952 39.1595 58.1667L39.3929 58.3143C41.269 59.6262 43.5119 61.0881 45.2381 61.9048L47.619 64.2857V66.6667C47.619 66.319 47.6524 66.9952 47.619 66.6667L47.5405 68.8905C47.5405 73.1167 44.5738 76.1857 40.6762 76.1857C40.6738 76.1857 40.6714 76.1857 40.669 76.1857C28.869 76.6643 25.4476 81.131 25.4429 81.131C24.8429 82.0738 24.1857 83.0095 23.5214 83.95C23.1476 84.4833 22.6762 85.1643 22.3 85.7143C29.9595 91.6619 39.55 95.2381 49.9976 95.2381C60.4452 95.2381 70.0381 91.6619 77.6976 85.7143ZM50 4.7619C25.0167 4.7619 4.7619 25.0167 4.7619 50C4.7619 62.8238 10.119 74.3738 18.6905 82.6048C19.6 81.2595 20.5714 79.9167 21.4286 78.5714C21.4286 78.5714 25.4048 72.0405 40.4762 71.4286C42.0119 71.4286 42.7786 70.4238 42.7786 68.8905H42.781C42.7786 67.65 42.7786 66.6667 42.7786 66.6667C42.7786 66.3571 42.7286 66.0786 42.7143 65.7786C40.9905 64.9643 38.9905 63.8405 36.669 62.2214C36.669 62.2214 30.9548 58.7071 30.9548 54.7619C30.9548 54.7619 28.5738 42.581 28.5738 38.0952C28.5738 27.0381 33.3024 16.6667 50.0024 16.6667C66.4786 16.6667 71.431 27.0381 71.431 38.0952C71.431 42.4714 69.05 54.7619 69.05 54.7619C69.05 58.5976 63.3357 62.2214 63.3357 62.2214C61.0619 63.9381 59.0476 65.0833 57.281 65.9024C57.269 66.1619 57.2262 66.4 57.2262 66.6667C57.2262 66.6667 57.2238 67.65 57.2238 68.8905C57.219 70.4238 57.9881 71.4286 59.5238 71.4286C74.819 72.1143 78.5714 78.5714 78.5714 78.5714C79.4286 79.9167 80.3976 81.2595 81.3071 82.6048C89.8786 74.3738 95.2381 62.8238 95.2381 50C95.2381 25.0167 74.9833 4.7619 50 4.7619Z" fill="url(#paint0_linear_50_720)"/>
<defs>
<linearGradient id="paint0_linear_50_720" x1="40.0905" y1="-107.216" x2="168.34" y2="-69.0335" gradientUnits="userSpaceOnUse">
<stop stop-color="#2F96D0"/>
<stop offset="1" stop-color="#C35BE8"/>
</linearGradient>
</defs>
</svg>
