<svg width="94" height="114" viewBox="0 0 94 114" fill="none" xmlns="http://www.w3.org/2000/svg">
<path fill-rule="evenodd" clip-rule="evenodd" d="M46.9693 114C15.6564 100.149 0 86.3312 0 72.5455V20.7273C0 15.5455 2.60941 15.5455 10.4376 10.3636C11.282 9.80471 29.0334 0 46.9693 0C62.601 0 75.6728 5.18182 83.5011 10.3636C91.3293 15.5455 93.9387 15.5455 93.9387 20.7273C94.0766 22.2368 93.9387 64.7727 93.9387 72.5455C93.9387 86.3636 78.2822 100.182 46.9693 114ZM83.5011 72.5455C83.5011 71.352 83.5041 69.3524 83.5107 66.0925C83.5138 64.519 83.5202 61.4698 83.5317 55.971C83.5384 52.6966 83.5437 49.8867 83.5482 47.2052C83.5675 35.6387 83.5623 25.7112 83.551 22.6408C81.825 21.5762 79.1315 19.9268 77.7113 18.9867C70.0069 13.8868 58.7648 10.3636 46.9693 10.3636C35.6867 10.3636 21.0247 15.8112 16.2274 18.9867C14.8209 19.9177 12.1653 21.5446 10.4376 22.61V72.5455C10.4376 80.362 22.071 91.038 46.9742 102.61C71.8744 91.0639 83.5011 80.392 83.5011 72.5455ZM41.7505 60.0354L64.1544 37.7904L71.5349 45.1186L41.7505 74.6918L22.4038 55.4823L29.7843 48.1541L41.7505 60.0354Z" fill="url(#paint0_linear_149_179)"/>
<defs>
<linearGradient id="paint0_linear_149_179" x1="37.685" y1="-122.227" x2="161.466" y2="-91.8396" gradientUnits="userSpaceOnUse">
<stop stop-color="#2F96D0"/>
<stop offset="1" stop-color="#C35BE8"/>
</linearGradient>
</defs>
</svg>
