<svg width="34" height="34" viewBox="0 0 34 34" fill="none" xmlns="http://www.w3.org/2000/svg">
<path d="M7.30435 12.8261C7.30435 13.3784 7.75206 13.8261 8.30435 13.8261C8.85663 13.8261 9.30435 13.3784 9.30435 12.8261H7.30435ZM12.8696 12.8261C12.8696 13.3784 13.3173 13.8261 13.8696 13.8261C14.4219 13.8261 14.8696 13.3784 14.8696 12.8261H12.8696ZM19.1304 12.8261C19.1304 13.3784 19.5781 13.8261 20.1304 13.8261C20.6827 13.8261 21.1304 13.3784 21.1304 12.8261H19.1304ZM24.6957 12.8261C24.6957 13.3784 25.1434 13.8261 25.6957 13.8261C26.2479 13.8261 26.6957 13.3784 26.6957 12.8261H24.6957ZM10.7698 21.8778C10.3902 21.4767 9.75723 21.4593 9.3561 21.8389C8.95498 22.2185 8.93755 22.8515 9.31718 23.2526L10.7698 21.8778ZM24.5976 23.3327C25.0215 22.9787 25.0781 22.348 24.724 21.9242C24.37 21.5003 23.7393 21.4437 23.3155 21.7977L24.5976 23.3327ZM11.7134 23.4861C11.8378 22.9481 11.5025 22.411 10.9644 22.2866C10.4263 22.1622 9.88925 22.4975 9.76484 23.0356L11.7134 23.4861ZM15.5678 26.1037C15.9852 25.7421 16.0305 25.1106 15.6689 24.6931C15.3073 24.2756 14.6758 24.2304 14.2583 24.592L15.5678 26.1037ZM8.52597 21.5732C7.9781 21.6429 7.59047 22.1436 7.66017 22.6914C7.72987 23.2393 8.23051 23.6269 8.77838 23.5572L8.52597 21.5732ZM11.0355 21.3001C11.1052 20.7522 10.7176 20.2516 10.1697 20.1819C9.62181 20.1122 9.12117 20.4998 9.05147 21.0477L11.0355 21.3001ZM24.2609 21.1739C24.2609 20.6216 23.8132 20.1739 23.2609 20.1739C22.7086 20.1739 22.2609 20.6216 22.2609 21.1739H24.2609ZM25.5376 23.547C26.0799 23.4422 26.4345 22.9176 26.3296 22.3754C26.2248 21.8332 25.7003 21.4786 25.158 21.5834L25.5376 23.547ZM32 17C32 25.2843 25.2843 32 17 32V34C26.3888 34 34 26.3888 34 17H32ZM17 32C8.71573 32 2 25.2843 2 17H0C0 26.3888 7.61116 34 17 34V32ZM2 17C2 8.71573 8.71573 2 17 2V0C7.61116 0 0 7.61116 0 17H2ZM17 2C25.2843 2 32 8.71573 32 17H34C34 7.61116 26.3888 0 17 0V2ZM9.30435 12.8261C9.30435 12.6335 9.40557 12.3846 9.71891 12.1497C10.0329 11.9144 10.5131 11.7391 11.087 11.7391V9.73913C10.1234 9.73913 9.21229 10.03 8.51935 10.5494C7.82574 11.0693 7.30435 11.8639 7.30435 12.8261H9.30435ZM11.087 11.7391C11.6608 11.7391 12.141 11.9144 12.455 12.1497C12.7683 12.3846 12.8696 12.6335 12.8696 12.8261H14.8696C14.8696 11.8639 14.3482 11.0693 13.6546 10.5494C12.9616 10.03 12.0505 9.73913 11.087 9.73913V11.7391ZM21.1304 12.8261C21.1304 12.6335 21.2317 12.3846 21.545 12.1497C21.859 11.9144 22.3392 11.7391 22.913 11.7391V9.73913C21.9495 9.73913 21.0384 10.03 20.3454 10.5494C19.6518 11.0693 19.1304 11.8639 19.1304 12.8261H21.1304ZM22.913 11.7391C23.4869 11.7391 23.9671 11.9144 24.2811 12.1497C24.5944 12.3846 24.6957 12.6335 24.6957 12.8261H26.6957C26.6957 11.8639 26.1743 11.0693 25.4806 10.5494C24.7877 10.03 23.8766 9.73913 22.913 9.73913V11.7391ZM10.0435 22.5652C9.31718 23.2526 9.31758 23.253 9.31801 23.2535C9.31818 23.2537 9.31864 23.2541 9.31898 23.2545C9.31968 23.2552 9.32048 23.2561 9.32137 23.257C9.32315 23.2589 9.32531 23.2611 9.32785 23.2638C9.33294 23.269 9.33956 23.2759 9.34768 23.2841C9.36392 23.3007 9.38621 23.3231 9.4144 23.3507C9.47078 23.406 9.5509 23.4823 9.65369 23.5748C9.85904 23.7596 10.1562 24.0101 10.5365 24.2867C11.2943 24.8378 12.3988 25.5042 13.7782 25.9506C16.5958 26.8624 20.4358 26.8089 24.5976 23.3327L23.3155 21.7977C19.7068 24.8119 16.5903 24.7585 14.394 24.0477C13.2664 23.6828 12.3496 23.1322 11.7128 22.6692C11.3958 22.4387 11.1524 22.2329 10.9915 22.0881C10.9111 22.0158 10.8517 21.959 10.8143 21.9223C10.7956 21.904 10.7825 21.8908 10.775 21.8831C10.7713 21.8793 10.7689 21.8769 10.7681 21.876C10.7676 21.8756 10.7676 21.8755 10.7678 21.8758C10.768 21.8759 10.7682 21.8762 10.7685 21.8765C10.7687 21.8767 10.769 21.877 10.7691 21.8771C10.7694 21.8775 10.7698 21.8778 10.0435 22.5652ZM10.7391 23.2609C9.76484 23.0356 9.76476 23.0359 9.76468 23.0363C9.76464 23.0364 9.76456 23.0368 9.76449 23.0371C9.76435 23.0377 9.76418 23.0384 9.76399 23.0393C9.76361 23.0409 9.76313 23.043 9.76256 23.0456C9.76142 23.0506 9.7599 23.0574 9.75805 23.0658C9.75435 23.0826 9.74929 23.1059 9.74317 23.1352C9.73094 23.1938 9.71439 23.2764 9.69584 23.3783C9.65888 23.5812 9.61324 23.8647 9.57826 24.189C9.51183 24.805 9.4685 25.6946 9.67815 26.4599C9.78499 26.8499 9.98108 27.2967 10.359 27.6421C10.7659 28.0139 11.2903 28.1829 11.8657 28.1476C12.4057 28.1144 12.9695 27.9051 13.5517 27.578C14.1419 27.2465 14.8089 26.761 15.5678 26.1037L14.2583 24.592C13.5615 25.1955 13.0064 25.5904 12.5722 25.8343C12.1301 26.0827 11.8675 26.1437 11.7432 26.1513C11.6544 26.1568 11.6768 26.137 11.7082 26.1657C11.7108 26.168 11.6581 26.1175 11.6071 25.9314C11.5011 25.5445 11.506 24.9667 11.5667 24.4034C11.5954 24.138 11.633 23.9038 11.6635 23.7366C11.6786 23.6533 11.6918 23.5877 11.7009 23.5442C11.7054 23.5225 11.7089 23.5064 11.7111 23.4966C11.7122 23.4916 11.713 23.4882 11.7134 23.4865C11.7136 23.4856 11.7137 23.4851 11.7137 23.4851C11.7137 23.485 11.7137 23.4851 11.7136 23.4853C11.7136 23.4854 11.7136 23.4856 11.7135 23.4856C11.7135 23.4859 11.7134 23.4861 10.7391 23.2609ZM8.77838 23.5572C9.35153 23.4843 9.88422 23.2231 10.2928 22.8145L8.87855 21.4003C8.78343 21.4954 8.65941 21.5562 8.52597 21.5732L8.77838 23.5572ZM10.2928 22.8145C10.7013 22.406 10.9626 21.8733 11.0355 21.3001L9.05147 21.0477C9.0345 21.1812 8.97367 21.3052 8.87855 21.4003L10.2928 22.8145ZM23.2609 21.1739C22.2609 21.1739 22.2609 21.1745 22.2609 21.1751C22.2609 21.1753 22.2609 21.1759 22.2609 21.1763C22.2609 21.1771 22.2609 21.1779 22.2609 21.1788C22.2609 21.1806 22.2609 21.1825 22.2609 21.1845C22.261 21.1885 22.261 21.1929 22.2611 21.1979C22.2613 21.2077 22.2616 21.2195 22.2621 21.233C22.2632 21.2599 22.2651 21.2941 22.2685 21.3344C22.2752 21.4144 22.2882 21.5213 22.3132 21.6454C22.3618 21.8872 22.4635 22.2304 22.6852 22.5688C22.9147 22.9192 23.2689 23.2563 23.7861 23.4528C24.2945 23.646 24.882 23.6738 25.5376 23.547L25.158 21.5834C24.7701 21.6584 24.5751 21.6131 24.4965 21.5833C24.4267 21.5567 24.3896 21.5208 24.3583 21.4729C24.3191 21.4131 24.2903 21.3328 24.2738 21.2507C24.2662 21.2128 24.2628 21.1827 24.2614 21.1661C24.2607 21.1581 24.2606 21.1541 24.2606 21.1549C24.2606 21.1554 24.2607 21.1571 24.2608 21.1602C24.2608 21.1618 24.2608 21.1637 24.2608 21.166C24.2608 21.1671 24.2609 21.1683 24.2609 21.1697C24.2609 21.1703 24.2609 21.171 24.2609 21.1717C24.2609 21.1721 24.2609 21.1726 24.2609 21.1728C24.2609 21.1734 24.2609 21.1739 23.2609 21.1739Z" fill="white"/>
</svg>
