<svg width="189" height="52" viewBox="0 0 189 52" fill="none" xmlns="http://www.w3.org/2000/svg">
<path d="M29.641 40.7616C29.8958 43.8532 27.917 48.5843 26.9104 50.9341C35.6988 40.915 35.4869 33.0226 20.9807 26.2571C-8.52052 12.498 7.59153 -5.67857 31.0316 15.5464C25.6164 8.08326 14.5611 -2.4425 5.52638 2.7009C-1.67624 6.20418 0.916679 17.485 0.916679 17.485C2.28227 35.249 15.5314 51.0561 16.8623 51.3332C10.2935 45.4568 4.6507 24.266 3.71698 17.3738C3.71698 17.3738 6.34758 23.3737 17.0202 28.3117C29.3433 33.2667 29.5258 39.3638 29.641 40.7616Z" fill="white"/>
<path d="M18.9657 33.6789L16.1654 33.7902C14.622 39.7909 17.5967 48.3618 19.0037 51.2481C16.7941 45.4625 17.8755 36.6919 18.9657 33.6789Z" fill="white"/>
<path d="M44.6214 15.0065C44.1538 26.079 34.8741 47.208 30.0402 50.8097C33.5976 44.839 40.7601 29.9424 40.8327 15.157C40.9101 -0.601998 25.5719 6.85411 24.6659 6.8901C27.414 3.74524 33.2758 1.43359 35.4237 1.51327C38.3064 1.39876 45.0889 3.93407 44.6214 15.0065Z" fill="white"/>
<path d="M79.92 23.9835V31H76.6933V26.9635H62.2536V31H59L59.0269 23.9835H59.8336C61.0167 23.9293 61.8413 23.0534 62.3074 21.3557C62.7914 19.64 63.0872 17.1928 63.1948 14.0141L63.4099 8H77.2042V23.9835H79.92ZM66.2602 14.3392C66.1705 16.7954 65.9733 18.8453 65.6686 20.4888C65.3638 22.1143 64.8798 23.2792 64.2166 23.9835H73.7623V10.98H66.3946L66.2602 14.3392Z" fill="white"/>
<path d="M90.2027 12.3345C92.318 12.3345 93.9314 12.8492 95.0429 13.8787C96.1722 14.8901 96.7369 16.4252 96.7369 18.4841V26.9635H93.5639V25.2026C93.1516 25.8347 92.5601 26.3223 91.7892 26.6655C91.0363 26.9906 90.1221 27.1531 89.0465 27.1531C87.9709 27.1531 87.0298 26.9725 86.2231 26.6113C85.4164 26.232 84.789 25.7173 84.3408 25.0671C83.9106 24.3989 83.6955 23.6494 83.6955 22.8186C83.6955 21.5183 84.1705 20.4798 85.1206 19.7032C86.0886 18.9085 87.6034 18.5112 89.665 18.5112H93.3757V18.2945C93.3757 17.2831 93.071 16.5065 92.4615 15.9647C91.8699 15.4229 90.9825 15.1519 89.7994 15.1519C88.9927 15.1519 88.195 15.2784 87.4062 15.5312C86.6354 15.7841 85.9811 16.1362 85.4433 16.5878L84.1257 14.1225C84.8786 13.5446 85.7839 13.1021 86.8416 12.7951C87.8992 12.488 89.0196 12.3345 90.2027 12.3345ZM89.7456 24.6879C90.5882 24.6879 91.3321 24.4982 91.9774 24.119C92.6407 23.7216 93.1068 23.1618 93.3757 22.4393V20.7597H89.907C87.9709 20.7597 87.0029 21.4009 87.0029 22.6832C87.0029 23.2972 87.2449 23.7848 87.7289 24.1461C88.2129 24.5073 88.8852 24.6879 89.7456 24.6879Z" fill="white"/>
<path d="M102.913 12.4971H106.274V18.3757H113.507V12.4971H116.869V26.9635H113.507V21.2473H106.274V26.9635H102.913V12.4971Z" fill="white"/>
<path d="M134.764 15.3687H129.736V26.9635H126.375V15.3687H121.319V12.4971H134.764V15.3687Z" fill="white"/>
<path d="M139.219 12.4971H142.58V22.033L150.513 12.4971H153.578V26.9635H150.217V17.4276L142.311 26.9635H139.219V12.4971Z" fill="white"/>
<path d="M166.65 27.1531C165.162 27.1531 163.827 26.8371 162.644 26.2049C161.461 25.5728 160.537 24.6969 159.874 23.5771C159.211 22.4393 158.879 21.157 158.879 19.7303C158.879 18.3035 159.211 17.0302 159.874 15.9105C160.537 14.7907 161.452 13.9148 162.617 13.2827C163.8 12.6506 165.144 12.3345 166.65 12.3345C168.066 12.3345 169.303 12.6235 170.361 13.2014C171.437 13.7793 172.243 14.6101 172.781 15.6938L170.2 17.2108C169.787 16.5426 169.267 16.0459 168.64 15.7208C168.031 15.3777 167.358 15.2061 166.623 15.2061C165.368 15.2061 164.329 15.6215 163.504 16.4523C162.68 17.265 162.267 18.3577 162.267 19.7303C162.267 21.1029 162.671 22.2046 163.477 23.0353C164.302 23.8481 165.351 24.2544 166.623 24.2544C167.358 24.2544 168.031 24.0919 168.64 23.7668C169.267 23.4236 169.787 22.9179 170.2 22.2497L172.781 23.7668C172.225 24.8504 171.41 25.6902 170.334 26.2862C169.276 26.8642 168.048 27.1531 166.65 27.1531Z" fill="white"/>
<path d="M189 15.3687H183.972V26.9635H180.61V15.3687H175.555V12.4971H189V15.3687Z" fill="white"/>
<path d="M62.0758 43.9916C61.4932 43.9916 60.9665 43.8626 60.4959 43.6045C60.0309 43.3464 59.6639 42.9902 59.395 42.5358C59.1317 42.0757 59 41.5624 59 40.9958C59 40.4292 59.1317 39.9187 59.395 39.4642C59.6639 39.0042 60.0337 38.6452 60.5043 38.3871C60.9749 38.129 61.5016 38 62.0842 38C62.5212 38 62.9246 38.0729 63.2944 38.2188C63.6642 38.3647 63.9779 38.5778 64.2356 38.8583L63.8406 39.2539C63.3812 38.7882 62.8014 38.5554 62.101 38.5554C61.636 38.5554 61.213 38.662 60.832 38.8752C60.4511 39.0884 60.1513 39.3801 59.9328 39.7504C59.7199 40.1206 59.6135 40.5358 59.6135 40.9958C59.6135 41.4558 59.7199 41.871 59.9328 42.2412C60.1513 42.6115 60.4511 42.9032 60.832 43.1164C61.213 43.3296 61.636 43.4362 62.101 43.4362C62.807 43.4362 63.3868 43.2006 63.8406 42.7293L64.2356 43.1248C63.9779 43.4053 63.6614 43.6213 63.286 43.7728C62.9162 43.9187 62.5128 43.9916 62.0758 43.9916Z" fill="white"/>
<path d="M74.2954 38.5891H72.228V43.9411H71.6145V38.5891H69.5472V38.0505H74.2954V38.5891Z" fill="white"/>
<path d="M82.8852 43.9916C82.3025 43.9916 81.7731 43.8626 81.2969 43.6045C80.8262 43.3408 80.4565 42.9818 80.1875 42.5273C79.9242 42.0729 79.7926 41.5624 79.7926 40.9958C79.7926 40.4292 79.9242 39.9187 80.1875 39.4642C80.4565 39.0098 80.8262 38.6536 81.2969 38.3955C81.7731 38.1318 82.3025 38 82.8852 38C83.4679 38 83.9917 38.129 84.4567 38.3871C84.9273 38.6452 85.2971 39.0042 85.566 39.4642C85.835 39.9187 85.9694 40.4292 85.9694 40.9958C85.9694 41.5624 85.835 42.0757 85.566 42.5358C85.2971 42.9902 84.9273 43.3464 84.4567 43.6045C83.9917 43.8626 83.4679 43.9916 82.8852 43.9916ZM82.8852 43.4362C83.3502 43.4362 83.7704 43.3324 84.1458 43.1248C84.5211 42.9116 84.8153 42.6199 85.0282 42.2496C85.2411 41.8738 85.3475 41.4558 85.3475 40.9958C85.3475 40.5358 85.2411 40.1206 85.0282 39.7504C84.8153 39.3745 84.5211 39.0827 84.1458 38.8752C83.7704 38.662 83.3502 38.5554 82.8852 38.5554C82.4202 38.5554 81.9972 38.662 81.6162 38.8752C81.2408 39.0827 80.9439 39.3745 80.7254 39.7504C80.5125 40.1206 80.406 40.5358 80.406 40.9958C80.406 41.4558 80.5125 41.8738 80.7254 42.2496C80.9439 42.6199 81.2408 42.9116 81.6162 43.1248C81.9972 43.3324 82.4202 43.4362 82.8852 43.4362Z" fill="white"/>
<path d="M98.5634 38.0505V43.9411H97.9667V39.2286L95.6556 43.1921H95.3615L93.0504 39.2539V43.9411H92.4537V38.0505H92.9664L95.5212 42.418L98.0507 38.0505H98.5634Z" fill="white"/>
<path d="M109.311 42.3675H106.034L105.328 43.9411H104.68L107.37 38.0505H107.983L110.672 43.9411H110.017L109.311 42.3675ZM109.084 41.8626L107.672 38.6985L106.26 41.8626H109.084Z" fill="white"/>
<path d="M120.354 38.5891H118.286V43.9411H117.673V38.5891H115.605V38.0505H120.354V38.5891Z" fill="white"/>
<path d="M128.943 43.9916C128.361 43.9916 127.831 43.8626 127.355 43.6045C126.884 43.3408 126.515 42.9818 126.246 42.5273C125.982 42.0729 125.851 41.5624 125.851 40.9958C125.851 40.4292 125.982 39.9187 126.246 39.4642C126.515 39.0098 126.884 38.6536 127.355 38.3955C127.831 38.1318 128.361 38 128.943 38C129.526 38 130.05 38.129 130.515 38.3871C130.986 38.6452 131.355 39.0042 131.624 39.4642C131.893 39.9187 132.028 40.4292 132.028 40.9958C132.028 41.5624 131.893 42.0757 131.624 42.5358C131.355 42.9902 130.986 43.3464 130.515 43.6045C130.05 43.8626 129.526 43.9916 128.943 43.9916ZM128.943 43.4362C129.408 43.4362 129.829 43.3324 130.204 43.1248C130.579 42.9116 130.874 42.6199 131.086 42.2496C131.299 41.8738 131.406 41.4558 131.406 40.9958C131.406 40.5358 131.299 40.1206 131.086 39.7504C130.874 39.3745 130.579 39.0827 130.204 38.8752C129.829 38.662 129.408 38.5554 128.943 38.5554C128.478 38.5554 128.055 38.662 127.674 38.8752C127.299 39.0827 127.002 39.3745 126.784 39.7504C126.571 40.1206 126.464 40.5358 126.464 40.9958C126.464 41.4558 126.571 41.8738 126.784 42.2496C127.002 42.6199 127.299 42.9116 127.674 43.1248C128.055 43.3324 128.478 43.4362 128.943 43.4362Z" fill="white"/>
<path d="M142.962 38.0505V43.9411H142.348V38.5891H139.508L139.44 40.5582C139.412 41.3717 139.345 42.0281 139.239 42.5273C139.138 43.021 138.981 43.3913 138.768 43.6381C138.555 43.8794 138.272 44 137.919 44C137.768 44 137.611 43.9804 137.449 43.9411L137.499 43.3857C137.594 43.4081 137.687 43.4194 137.776 43.4194C138.023 43.4194 138.222 43.3212 138.373 43.1248C138.53 42.9285 138.648 42.6255 138.726 42.216C138.804 41.8008 138.858 41.2539 138.886 40.575L138.97 38.0505H142.962Z" fill="white"/>
<path d="M152.527 43.9916C151.944 43.9916 151.414 43.8626 150.938 43.6045C150.468 43.3408 150.098 42.9818 149.829 42.5273C149.566 42.0729 149.434 41.5624 149.434 40.9958C149.434 40.4292 149.566 39.9187 149.829 39.4642C150.098 39.0098 150.468 38.6536 150.938 38.3955C151.414 38.1318 151.944 38 152.527 38C153.109 38 153.633 38.129 154.098 38.3871C154.569 38.6452 154.938 39.0042 155.207 39.4642C155.476 39.9187 155.611 40.4292 155.611 40.9958C155.611 41.5624 155.476 42.0757 155.207 42.5358C154.938 42.9902 154.569 43.3464 154.098 43.6045C153.633 43.8626 153.109 43.9916 152.527 43.9916ZM152.527 43.4362C152.992 43.4362 153.412 43.3324 153.787 43.1248C154.163 42.9116 154.457 42.6199 154.67 42.2496C154.882 41.8738 154.989 41.4558 154.989 40.9958C154.989 40.5358 154.882 40.1206 154.67 39.7504C154.457 39.3745 154.163 39.0827 153.787 38.8752C153.412 38.662 152.992 38.5554 152.527 38.5554C152.062 38.5554 151.639 38.662 151.258 38.8752C150.882 39.0827 150.585 39.3745 150.367 39.7504C150.154 40.1206 150.047 40.5358 150.047 40.9958C150.047 41.4558 150.154 41.8738 150.367 42.2496C150.585 42.6199 150.882 42.9116 151.258 43.1248C151.639 43.3324 152.062 43.4362 152.527 43.4362Z" fill="white"/>
<path d="M165.835 38.5891H162.7L162.709 43.9411H162.095V38.0505H165.835V38.5891Z" fill="white"/>
<path d="M171.905 38.0505H172.518V42.9313L176.283 38.0505H176.846V43.9411H176.233V39.0687L172.468 43.9411H171.905V38.0505Z" fill="white"/>
<path d="M188 38.0505V43.9411H187.387V42.1571H185.63C185.552 42.1571 185.44 42.1515 185.294 42.1403L184.059 43.9411H183.395L184.731 42.0309C184.299 41.9018 183.969 41.6746 183.739 41.3492C183.51 41.0182 183.395 40.6143 183.395 40.1374C183.395 39.4755 183.602 38.9621 184.017 38.5975C184.437 38.2328 185.003 38.0505 185.714 38.0505H188ZM184.017 40.1206C184.017 40.6031 184.157 40.9762 184.437 41.2398C184.722 41.4979 185.137 41.6269 185.681 41.6269H187.387V38.5891H185.739C185.19 38.5891 184.764 38.7209 184.462 38.9846C184.165 39.2426 184.017 39.6213 184.017 40.1206Z" fill="white"/>
</svg>
